<?xml version="1.0" encoding="UTF-8"?>
<svg width="512px" height="512px" viewBox="0 0 512 512" version="1.1" xmlns="http://www.w3.org/2000/svg" xmlns:xlink="http://www.w3.org/1999/xlink">
    <title>512x512</title>
    <g id="512x512" stroke="none" stroke-width="1" fill="none" fill-rule="evenodd">
        <rect fill="#FFFFFF" x="0" y="0" width="512" height="512"></rect>
        <path d="M201.456,398.884 C207.856,398.884 214.064,397.924 220.08,396.004 C226.096,394.084 231.472,391.396 236.208,387.94 C240.944,384.484 244.976,380.388 248.304,375.652 C251.632,370.916 254.064,365.86 255.6,360.484 L257.52,360.484 L257.52,394.276 L314.352,394.276 L314.352,110.116 L257.52,110.116 L257.52,226.468 L255.6,226.468 C252.784,215.204 246.32,205.988 236.208,198.82 C226.096,191.652 214.512,188.068 201.456,188.068 C175.856,188.068 156.528,197.028 143.472,214.948 C130.416,232.868 123.888,258.98 123.888,293.284 C123.888,327.588 130.416,353.764 143.472,371.812 C156.528,389.86 175.856,398.884 201.456,398.884 Z M220.272,352.804 C209.52,352.804 200.624,349.028 193.584,341.476 C186.544,333.924 183.024,323.748 183.024,310.948 L183.024,310.948 L183.024,276.004 C183.024,263.204 186.544,253.028 193.584,245.476 C200.624,237.924 209.52,234.148 220.272,234.148 C231.024,234.148 239.92,236.772 246.96,242.02 C254,247.268 257.52,254.5 257.52,263.716 L257.52,263.716 L257.52,323.236 C257.52,332.452 254,339.684 246.96,344.932 C239.92,350.18 231.024,352.804 220.272,352.804 Z" id="d" fill="#000000" fill-rule="nonzero"></path>
        <path d="M217.68,248.98 C219.312,248.98 220.488,248.596 221.208,247.828 C221.928,247.06 222.288,246.076 222.288,244.876 L222.288,244.876 L222.288,243.652 C222.288,242.452 221.928,241.468 221.208,240.7 C220.488,239.932 219.312,239.548 217.68,239.548 C216.048,239.548 214.86,239.932 214.116,240.7 C213.372,241.468 213,242.452 213,243.652 L213,243.652 L213,244.876 C213,246.076 213.372,247.06 214.116,247.828 C214.86,248.596 216.048,248.98 217.68,248.98 Z M221.568,293.116 L221.568,255.676 L213.72,255.676 L213.72,293.116 L221.568,293.116 Z M244.68,293.98 C246.936,293.98 248.976,293.692 250.8,293.116 C252.624,292.54 254.184,291.724 255.48,290.668 C256.776,289.612 257.772,288.352 258.468,286.888 C259.164,285.424 259.512,283.78 259.512,281.956 C259.512,278.932 258.564,276.52 256.668,274.72 C254.772,272.92 251.76,271.708 247.632,271.084 L247.632,271.084 L244.176,270.652 C242.16,270.316 240.696,269.788 239.784,269.068 C238.872,268.348 238.416,267.268 238.416,265.828 C238.416,264.436 238.932,263.308 239.964,262.444 C240.996,261.58 242.592,261.148 244.752,261.148 C246.768,261.148 248.556,261.568 250.116,262.408 C251.676,263.248 252.936,264.244 253.896,265.396 L253.896,265.396 L258.72,260.788 C257.04,258.916 255.132,257.452 252.996,256.396 C250.86,255.34 248.112,254.812 244.752,254.812 C242.688,254.812 240.804,255.076 239.1,255.604 C237.396,256.132 235.932,256.888 234.708,257.872 C233.484,258.856 232.536,260.056 231.864,261.472 C231.192,262.888 230.856,264.508 230.856,266.332 C230.856,269.788 231.948,272.392 234.132,274.144 C236.316,275.896 239.328,277.012 243.168,277.492 L243.168,277.492 L246.624,277.924 C248.592,278.164 249.972,278.704 250.764,279.544 C251.556,280.384 251.952,281.404 251.952,282.604 C251.952,284.188 251.388,285.424 250.26,286.312 C249.132,287.2 247.416,287.644 245.112,287.644 C242.856,287.644 240.876,287.176 239.172,286.24 C237.468,285.304 235.92,283.996 234.528,282.316 L234.528,282.316 L229.488,286.924 C231.264,289.132 233.352,290.86 235.752,292.108 C238.152,293.356 241.128,293.98 244.68,293.98 Z M285.576,293.116 L285.576,286.708 L278.304,286.708 L278.304,262.084 L286.152,262.084 L286.152,255.676 L278.304,255.676 L278.304,245.452 L271.248,245.452 L271.248,252.004 C271.248,253.3 270.996,254.236 270.492,254.812 C269.988,255.388 269.088,255.676 267.792,255.676 L267.792,255.676 L264.624,255.676 L264.624,262.084 L270.456,262.084 L270.456,284.98 C270.456,287.572 271.152,289.576 272.544,290.992 C273.936,292.408 276,293.116 278.736,293.116 L278.736,293.116 L285.576,293.116 Z M302.496,293.116 L302.496,269.212 C302.496,267.244 303.324,265.756 304.98,264.748 C306.636,263.74 309.024,263.236 312.144,263.236 L312.144,263.236 L315.24,263.236 L315.24,255.676 L313.152,255.676 C310.176,255.676 307.848,256.396 306.168,257.836 C304.488,259.276 303.384,260.956 302.856,262.876 L302.856,262.876 L302.496,262.876 L302.496,255.676 L294.648,255.676 L294.648,293.116 L302.496,293.116 Z M326.184,248.98 C327.816,248.98 328.992,248.596 329.712,247.828 C330.432,247.06 330.792,246.076 330.792,244.876 L330.792,244.876 L330.792,243.652 C330.792,242.452 330.432,241.468 329.712,240.7 C328.992,239.932 327.816,239.548 326.184,239.548 C324.552,239.548 323.364,239.932 322.62,240.7 C321.876,241.468 321.504,242.452 321.504,243.652 L321.504,243.652 L321.504,244.876 C321.504,246.076 321.876,247.06 322.62,247.828 C323.364,248.596 324.552,248.98 326.184,248.98 Z M330.072,293.116 L330.072,255.676 L322.224,255.676 L322.224,293.116 L330.072,293.116 Z M349.152,293.116 L349.152,268.06 C349.152,266.956 349.38,265.996 349.836,265.18 C350.292,264.364 350.904,263.692 351.672,263.164 C352.44,262.636 353.316,262.24 354.3,261.976 C355.284,261.712 356.28,261.58 357.288,261.58 C361.992,261.58 364.344,264.508 364.344,270.364 L364.344,270.364 L364.344,293.116 L372.192,293.116 L372.192,269.356 C372.192,264.7 371.124,261.112 368.988,258.592 C366.852,256.072 363.864,254.812 360.024,254.812 C357.144,254.812 354.876,255.484 353.22,256.828 C351.564,258.172 350.328,259.852 349.512,261.868 L349.512,261.868 L349.152,261.868 L349.152,255.676 L341.304,255.676 L341.304,293.116 L349.152,293.116 Z M396.888,308.38 C403.608,308.38 408.456,307.396 411.432,305.428 C414.408,303.46 415.896,300.532 415.896,296.644 C415.896,293.428 414.864,290.896 412.8,289.048 C410.736,287.2 407.4,286.276 402.792,286.276 L402.792,286.276 L393.576,286.276 C391.896,286.276 390.6,286.06 389.688,285.628 C388.776,285.196 388.32,284.476 388.32,283.468 C388.32,282.508 388.68,281.728 389.4,281.128 C390.12,280.528 390.96,280.06 391.92,279.724 C393.36,280.108 394.992,280.3 396.816,280.3 C401.616,280.3 405.312,279.136 407.904,276.808 C410.496,274.48 411.792,271.42 411.792,267.628 C411.792,265.468 411.336,263.512 410.424,261.76 C409.512,260.008 408.216,258.58 406.536,257.476 L406.536,257.476 L406.536,255.964 L414.168,255.964 L414.168,249.628 L408.408,249.628 C406.728,249.628 405.492,250.096 404.7,251.032 C403.908,251.968 403.512,253.276 403.512,254.956 L403.512,254.956 L403.512,255.964 C401.64,255.196 399.384,254.812 396.744,254.812 C391.944,254.812 388.26,255.988 385.692,258.34 C383.124,260.692 381.84,263.788 381.84,267.628 C381.84,270.172 382.428,272.392 383.604,274.288 C384.78,276.184 386.472,277.66 388.68,278.716 L388.68,278.716 L388.68,279.004 C386.856,279.436 385.296,280.168 384,281.2 C382.704,282.232 382.056,283.708 382.056,285.628 C382.056,288.556 383.472,290.476 386.304,291.388 L386.304,291.388 L386.304,292.18 C384.288,292.612 382.716,293.404 381.588,294.556 C380.46,295.708 379.896,297.316 379.896,299.38 C379.896,300.82 380.208,302.092 380.832,303.196 C381.456,304.3 382.452,305.236 383.82,306.004 C385.188,306.772 386.94,307.36 389.076,307.768 C391.212,308.176 393.816,308.38 396.888,308.38 Z M396.816,274.612 C394.512,274.612 392.724,274.096 391.452,273.064 C390.18,272.032 389.544,270.436 389.544,268.276 L389.544,268.276 L389.544,266.836 C389.544,264.676 390.18,263.08 391.452,262.048 C392.724,261.016 394.512,260.5 396.816,260.5 C399.12,260.5 400.908,261.016 402.18,262.048 C403.452,263.08 404.088,264.676 404.088,266.836 L404.088,266.836 L404.088,268.276 C404.088,270.436 403.452,272.032 402.18,273.064 C400.908,274.096 399.12,274.612 396.816,274.612 Z M399.408,302.692 L394.512,302.692 C391.584,302.692 389.508,302.224 388.284,301.288 C387.06,300.352 386.448,299.116 386.448,297.58 C386.448,295.708 387.312,294.268 389.04,293.26 L389.04,293.26 L401.712,293.26 C404.304,293.26 406.092,293.644 407.076,294.412 C408.06,295.18 408.552,296.212 408.552,297.508 C408.552,300.964 405.504,302.692 399.408,302.692 L399.408,302.692 Z M436.416,293.98 C439.008,293.98 441.372,293.524 443.508,292.612 C445.644,291.7 447.456,290.392 448.944,288.688 C450.432,286.984 451.584,284.92 452.4,282.496 C453.216,280.072 453.624,277.372 453.624,274.396 C453.624,271.42 453.216,268.72 452.4,266.296 C451.584,263.872 450.432,261.808 448.944,260.104 C447.456,258.4 445.644,257.092 443.508,256.18 C441.372,255.268 439.008,254.812 436.416,254.812 C433.824,254.812 431.46,255.268 429.324,256.18 C427.188,257.092 425.376,258.4 423.888,260.104 C422.4,261.808 421.248,263.872 420.432,266.296 C419.616,268.72 419.208,271.42 419.208,274.396 C419.208,277.372 419.616,280.072 420.432,282.496 C421.248,284.92 422.4,286.984 423.888,288.688 C425.376,290.392 427.188,291.7 429.324,292.612 C431.46,293.524 433.824,293.98 436.416,293.98 Z M436.416,287.5 C433.728,287.5 431.568,286.672 429.936,285.016 C428.304,283.36 427.488,280.876 427.488,277.564 L427.488,277.564 L427.488,271.228 C427.488,267.916 428.304,265.432 429.936,263.776 C431.568,262.12 433.728,261.292 436.416,261.292 C439.104,261.292 441.264,262.12 442.896,263.776 C444.528,265.432 445.344,267.916 445.344,271.228 L445.344,271.228 L445.344,277.564 C445.344,280.876 444.528,283.36 442.896,285.016 C441.264,286.672 439.104,287.5 436.416,287.5 Z" id="istringo" fill="#000000" fill-rule="nonzero" transform="translate(333.312000, 273.964000) rotate(90.000000) translate(-333.312000, -273.964000) "></path>
        <line x1="314.112" y1="110.276" x2="314.112" y2="394.276" id="Path-2" stroke="#000000"></line>
    </g>
</svg>